<?xml version="1.0" encoding="UTF-8" standalone="no"?>
<svg width="347px" height="192px" viewBox="0 0 347 192" version="1.1" xmlns="http://www.w3.org/2000/svg" xmlns:xlink="http://www.w3.org/1999/xlink" xmlns:sketch="http://www.bohemiancoding.com/sketch/ns">
    <!-- Generator: Sketch Beta 3.5.1 (25233) - http://www.bohemiancoding.com/sketch -->
    <title>Group 3</title>
    <desc>Created with Sketch Beta.</desc>
    <defs></defs>
    <g id="Page-1" stroke="none" stroke-width="1" fill="none" fill-rule="evenodd" sketch:type="MSPage">
        <g id="Desktop" sketch:type="MSArtboardGroup" transform="translate(-348.000000, -3575.000000)" fill="#FFFFFF">
            <g id="Group" sketch:type="MSLayerGroup" transform="translate(0.000000, 3361.000519)">
                <g transform="translate(89.600000, 143.601695)" id="Group-3" sketch:type="MSShapeGroup">
                    <g transform="translate(259.000000, 70.000000)">
                        <path d="M345.8,109.152542 L0.2,143.56574 L0.2,149.606211 L82.8830274,141.371855 L71.4608614,182.733051 L274.96165,162.465628 L263.543586,123.369088 L345.8,115.180524 L345.8,109.152542 L345.8,109.152542 Z M105.336361,165.549185 L99.4009886,161.751282 L93.4695706,166.737288 L95.7353723,159.403268 L89.8,155.605365 L97.137164,154.874379 L99.4009886,147.542373 L101.668767,154.417262 L109,153.68829 L103.066605,158.672282 L105.336361,165.549185 L105.336361,165.549185 Z M137.687013,162.273045 C135.480319,164.804623 132.383482,166.252363 128.378815,166.641836 C126.411851,166.846408 124.661038,166.720518 123.132269,166.279901 C121.601535,165.833384 120.237826,165.070173 119.031317,163.966664 C117.879828,162.9202 116.987719,161.63179 116.351059,160.099467 C115.716365,158.580914 115.4,156.950239 115.4,155.20941 C115.4,153.397768 115.708505,151.700214 116.327479,150.122649 C116.948419,148.541151 117.870003,147.065872 119.094197,145.744022 C120.312496,144.437909 121.70961,143.399313 123.283574,142.64397 C124.857538,141.872891 126.559226,141.404736 128.378815,141.223769 C130.762358,140.997559 132.862941,141.24934 134.688425,142.024353 C136.517839,142.779696 138.060362,144.032699 139.306171,145.767627 L133.570341,149.093889 C132.886521,148.20282 132.116242,147.591071 131.249678,147.2134 C130.398833,146.833762 129.441879,146.696069 128.378815,146.800322 C126.402026,146.998993 124.839853,147.815314 123.706049,149.239449 C122.564384,150.679321 121.9965,152.538172 121.9965,154.823871 C121.9965,157.152844 122.564384,158.905475 123.706049,160.121105 C124.839853,161.338701 126.402026,161.850131 128.378815,161.661296 C130.058889,161.486229 131.461897,160.933492 132.581947,160.003082 C133.707891,159.066772 134.36027,157.90622 134.54891,156.521425 L127.9642,157.172514 L127.9642,152.079853 L140.96463,150.797344 C140.97642,150.962575 140.982315,151.139608 140.990175,151.328444 C140.99214,151.533016 141,151.824138 141,152.217545 C141,156.3916 139.897636,159.751302 137.687013,162.273045 L137.687013,162.273045 Z M173,152.10208 C173,155.046701 172.828821,157.225894 172.49869,158.665679 C172.166521,160.090286 171.602038,161.339257 170.815429,162.410422 C169.959534,163.592173 168.779622,164.53107 167.271616,165.231447 C165.771761,165.931824 163.949927,166.378505 161.810189,166.610518 C159.645997,166.840364 157.826201,166.755798 156.330422,166.372 C154.832606,165.988202 153.652693,165.292161 152.780495,164.299056 C151.997962,163.397022 151.443668,162.256469 151.103348,160.892576 C150.767103,159.530852 150.6,157.377679 150.6,154.4439 L150.6,140.282398 L157.441048,139.575515 L157.441048,152.587791 C157.441048,154.513287 157.485881,155.879348 157.575546,156.701153 C157.667249,157.5338 157.826201,158.212494 158.04425,158.758919 C158.305095,159.407256 158.76361,159.875619 159.417758,160.179189 C160.071907,160.461074 160.864629,160.560818 161.810189,160.461074 C162.747598,160.363498 163.538282,160.109801 164.192431,159.676131 C164.832314,159.244629 165.298981,158.674353 165.570015,157.971807 C165.788064,157.377679 165.947016,156.664291 166.036681,155.814298 C166.128384,154.975146 166.175255,153.602579 166.175255,151.683589 L166.175255,138.658303 L173,137.944915 L173,152.10208 L173,152.10208 Z M195.696197,150.440895 L195.696197,162.843018 L188.697341,163.538136 L188.697341,151.140411 L179.4,137.312857 L187.721508,136.476957 L191.295254,143.120166 C191.323258,143.148763 191.359879,143.208155 191.409424,143.304944 C191.79071,143.995662 192.049209,144.670981 192.191383,145.328703 C192.312016,144.710577 192.574823,144.00666 192.975496,143.225753 C193.046584,143.080571 193.096129,142.981582 193.113363,142.926589 L196.667721,135.581663 L205,134.745763 L195.696197,150.440895 L195.696197,150.440895 Z M227.883297,156.891432 C226.069356,158.833231 223.651469,159.961365 220.642262,160.262641 C218.822008,160.449564 217.182727,160.291229 215.699167,159.809628 C214.211399,159.323628 212.776238,158.454987 211.4,157.221296 L214.600701,151.382706 C215.652872,152.532832 216.690311,153.353093 217.710916,153.867681 C218.742043,154.375671 219.760544,154.580186 220.77694,154.487825 C221.725997,154.375671 222.508812,154.041409 223.112758,153.447654 C223.723016,152.853899 224.023937,152.143592 224.023937,151.327729 C224.023937,150.423902 223.771416,149.748781 223.239018,149.319958 C222.712933,148.884538 221.519772,148.499696 219.665848,148.180828 C217.109075,147.719019 215.318281,146.975725 214.259798,145.933356 C213.211837,144.88219 212.681543,143.360418 212.681543,141.359244 C212.681543,138.759917 213.514862,136.552028 215.179395,134.753171 C216.841824,132.934521 218.996668,131.900948 221.650241,131.626061 C223.081192,131.474324 224.440596,131.542496 225.726348,131.808586 C227.007891,132.081274 228.2242,132.562875 229.375274,133.264385 L227.157299,138.821491 C226.349233,138.185954 225.520123,137.728543 224.682595,137.438262 C223.826129,137.167774 222.994915,137.075412 222.1637,137.161177 C221.313547,137.253539 220.623323,137.526226 220.084612,138.010026 C219.554318,138.498225 219.284963,139.069989 219.284963,139.734115 C219.284963,140.422431 219.520649,140.934819 219.989917,141.291072 C220.459185,141.660519 221.359842,141.955198 222.693994,142.186103 L223.015958,142.245478 C225.905217,142.768862 227.801228,143.47697 228.714511,144.358806 C229.328979,144.952561 229.791933,145.711247 230.12021,146.617273 C230.435861,147.516702 230.6,148.530484 230.6,149.674012 C230.6,152.546026 229.686716,154.962829 227.883297,156.891432 L227.883297,156.891432 Z M252.536361,149.551159 L246.599011,145.760515 L240.665616,150.741525 L242.931418,143.412008 L237,139.617337 L244.329255,138.880155 L246.599011,131.54661 L248.860859,138.433013 L256.2,137.691803 L250.268582,142.674827 L252.536361,149.551159 L252.536361,149.551159 Z" id="Fill-1"></path>
                        <path d="M279.059601,165.68269 L67.083971,186.677314 L78.5061371,145.207448 L0.2,152.965071 L0.2,157.85885 L70.7922268,150.877196 L59.3700607,192.330508 L286.763256,169.825331 L275.349294,130.619226 L345.8,123.649987 L345.8,118.75 L267.631282,126.491069 L279.059601,165.68269" id="Fill-2"></path>
                        <path d="M0.2,93.3428329 L6.69403149,92.7142061 L2.70574881,137.944915 L11.7711461,137.064838 L15.6999634,91.8462957 L22.1939949,91.2136132 L22.6,86.7584746 L0.601904064,88.8836386 L0.2,93.3428329 L0.2,93.3428329 Z M49.135908,125.413417 L50.5793448,108.091583 C50.9001085,104.501746 49.7982643,101.92264 47.2779779,100.354264 C45.1242786,98.9847548 42.2165763,98.4804145 38.5465394,98.8350928 L34.832762,99.1938715 L36.2095465,83.559322 L24.3871122,84.7135643 L23.9726188,89.2833795 L26.6512042,89.0168582 L22.6,134.745763 L31.8125841,133.855992 L34.4224344,103.970753 L38.1341289,103.611975 C40.6127576,103.368005 41.7083532,104.981484 41.4354958,108.43396 L39.9212411,126.303188 C39.7400304,128.539917 40.4273812,130.21285 41.9874593,131.313788 C43.3642439,132.314268 45.1680191,132.695599 47.415448,132.484432 L50.9896724,132.142055 L51.4,127.570189 C50.4856151,127.654246 49.889911,127.594791 49.6170536,127.397975 C49.2025602,127.0802 49.0421783,126.428248 49.135908,125.413417 L49.135908,125.413417 Z M74.0975021,98.0964089 C72.1483177,96.6746915 69.5097876,96.1234133 66.1819117,96.4446468 C62.9491181,96.7493005 60.0491121,97.8642918 57.4797326,99.791693 C54.6251067,101.89111 53.0605729,104.421601 52.7731654,107.414254 C52.537621,110.168572 53.7239871,112.614092 56.3387466,114.744596 C53.2939564,116.943491 51.6581109,119.652215 51.4204055,122.858333 C51.2302412,125.672754 52.3690662,127.888229 54.8433635,129.523411 C57.1728765,131.129579 59.9043278,131.778263 63.0420393,131.47361 C66.324535,131.179318 69.1035274,130.109921 71.3876603,128.302724 C73.8641186,126.296568 75.2341661,123.7267 75.5280565,120.586901 L70.7480167,121.049063 C70.6053934,122.570259 69.9981641,123.842759 68.9284898,124.883141 C67.8566544,125.911088 66.685415,126.54112 65.3996448,126.744223 C63.8761692,126.982557 62.7243784,126.663396 61.9399506,125.768087 C61.1533618,124.889358 60.7622283,123.74328 60.7622283,122.323635 C60.7622283,120.821091 61.1533618,119.453258 61.9399506,118.209773 C62.7243784,116.974578 63.7594775,116.303097 65.0430867,116.174603 L73.8144165,115.349758 L74.2401253,110.798605 L65.3996448,111.635884 C63.160892,111.845204 62.0436766,110.489806 62.0436766,107.565545 C62.0436766,105.87855 62.5558237,104.355282 63.577957,102.977086 C64.6022512,101.611326 65.9917474,100.902539 67.7529284,100.879742 C69.0343767,100.890104 70.1256607,101.329469 71.0311022,102.175039 C71.9322218,103.028898 72.3168724,104.164614 72.1720882,105.594621 L76.949967,105.136605 C77.2373745,101.961574 76.2865528,99.6176051 74.0975021,98.0964089 L74.0975021,98.0964089 Z M115.363484,86.6475816 C115.587451,83.7743115 114.781169,81.4133299 112.944639,79.5727362 C111.104037,77.7159436 108.756454,76.9424488 105.885603,77.2137794 L88.3489794,78.9268072 L87.9438026,83.4523595 L90.5682898,83.1891283 L86.6,128.347458 L95.6075495,127.46867 L97.3544929,106.71795 L103.401605,106.134792 C106.266347,105.849287 108.813464,104.599951 111.026666,102.374635 C113.248013,100.157418 114.467615,97.6141995 114.691582,94.7368797 L115.363484,86.6475816 L115.363484,86.6475816 Z M105.769481,87.5623937 L104.747025,97.6582998 C104.60096,98.8559891 103.994568,99.9250803 102.923423,100.879009 C101.850066,101.846373 100.635069,102.370363 99.2695814,102.497041 L96.2,102.754237 L98.098847,83.8388085 L101.168428,83.5835318 C102.580392,83.4626112 103.737847,83.7946629 104.638582,84.5796868 C105.537104,85.3704688 105.915546,86.362785 105.769481,87.5623937 L105.769481,87.5623937 Z M141.930152,115.817262 L143.373275,98.49404 C143.696052,94.8957142 142.592364,92.3266531 140.06846,90.7581521 C137.921475,89.3864826 135.003991,88.8882529 131.340998,89.2368087 L127.636356,89.5874148 L129.006594,73.9618644 L117.188807,75.1038972 L116.772321,79.6761288 L119.45449,79.4198378 L115.4,125.148305 L124.604338,124.260513 L127.21987,94.3708302 L130.932842,94.0058718 C133.410933,93.7741847 134.506291,95.3754909 134.233492,98.8302938 L132.717484,116.709155 C132.532148,118.939912 133.217267,120.61503 134.783254,121.730408 C136.15141,122.714566 137.961041,123.110279 140.212148,122.882693 L143.787679,122.544388 L144.2,117.966006 C143.279566,118.05622 142.683991,118.002912 142.413275,117.80403 C142.003037,117.488279 141.830195,116.821923 141.930152,115.817262 L141.930152,115.817262 Z M166.704701,88.5113849 C164.61936,87.0855914 162.098012,86.5346697 159.15052,86.8400495 L157.779365,86.9844859 C154.786497,87.2795488 152.134938,88.3710753 149.836526,90.2404949 C147.23429,92.3224424 145.803947,94.8830934 145.539581,97.9038774 L144.241422,113.29048 C143.975082,116.311264 144.993091,118.61812 147.297422,120.20073 C149.380789,121.61208 151.923839,122.171255 154.916707,121.870002 L156.216839,121.733819 C159.385294,121.403679 162.161144,120.180096 164.552282,118.046564 C166.941447,115.917159 168.243552,113.509198 168.460569,110.808238 L169.760701,95.4216348 C170.019149,92.4421183 169.003113,90.1352627 166.704701,88.5113849 L166.704701,88.5113849 Z M163.360315,97.8938077 L161.902367,113.243872 C161.744248,114.943483 161.221061,116.26609 160.328155,117.234353 C159.430598,118.190256 158.444681,118.694989 157.372729,118.746492 C156.296126,118.791815 155.396244,118.398329 154.680059,117.545433 C153.97085,116.706958 153.694142,115.51002 153.835984,113.950498 L155.300908,98.5901332 C155.445075,96.9955889 155.98919,95.6812229 156.912324,94.6470353 C157.777327,93.7529368 158.753943,93.266745 159.832871,93.1719788 C160.946679,93.0772126 161.860512,93.4253754 162.551119,94.2226475 C163.239401,95.0261001 163.509133,96.24776 163.360315,97.8938077 L163.360315,97.8938077 Z M179.343368,113.018859 L181.333662,90.3738335 L185.380878,89.9854737 L185.8,85.1878352 L181.684005,85.5976514 L182.462068,77.1610169 L172.961964,78.0986592 L169.843265,113.947919 C169.606837,116.803758 170.339763,118.930082 172.033447,120.322598 C173.59817,121.633581 175.749664,122.148533 178.496527,121.880329 L181.83231,121.558484 L182.251432,116.698622 C180.076295,116.677166 179.10694,115.447717 179.343368,113.018859 L179.343368,113.018859 Z M313.741973,100.221829 L315.739966,77.5778595 L319.772473,77.1766066 L320.2,72.3916115 L316.096597,72.8014474 L316.865716,64.3644068 L307.365585,65.2999484 L304.241843,101.15308 C304.009818,104.009057 304.742415,106.129045 306.448228,107.523775 C308.007951,108.836966 310.156329,109.351943 312.895512,109.083726 L316.234093,108.753283 L316.650878,103.903915 C314.474571,103.876021 313.505652,102.650805 313.741973,100.221829 L313.741973,100.221829 Z M205.099406,85.3162052 C203.012472,83.8947264 200.499472,83.3335621 197.548571,83.6409646 L196.187527,83.7812557 C193.187313,84.0865951 190.542154,85.1779772 188.238242,87.0430233 C185.63056,89.1329479 184.200478,91.6788184 183.938132,94.7074553 L182.640209,110.092023 C182.377863,113.114471 183.399632,115.416895 185.695654,116.997233 C187.788505,118.418712 190.325176,118.971623 193.315527,118.67041 L194.617395,118.536309 C197.785274,118.210338 200.566538,116.980728 202.953296,114.847478 C205.340055,112.722481 206.63995,110.310712 206.856928,107.610109 L208.160769,92.2193517 C208.41917,89.2402293 207.401346,86.9398681 205.099406,85.3162052 L205.099406,85.3162052 Z M201.757195,91.4931524 L200.301688,106.854653 C200.150557,108.541802 199.618111,109.870509 198.722951,110.826353 C197.839416,111.794559 196.841952,112.295141 195.772409,112.346641 C194.693567,112.402262 193.798407,111.9985 193.089254,111.147715 C192.368475,110.309291 192.087139,109.104184 192.240595,107.557116 L193.703078,92.1997361 C193.856534,90.5970477 194.39363,89.2827609 195.312041,88.2486355 C196.181626,87.3628308 197.160489,86.8725483 198.232356,86.7736677 C199.357701,86.6789072 200.266812,87.0270491 200.952714,87.8283933 C201.643266,88.6276774 201.912977,89.8595639 201.757195,91.4931524 L201.757195,91.4931524 Z M239.886825,64.4189084 L222.750311,66.0359933 L222.40491,70.5484107 L225.057923,70.3089929 L221,115.550847 L236.530298,114.087964 C239.515997,113.803909 242.162653,112.550009 244.45967,110.297858 C246.775759,108.047736 248.038695,105.481096 248.276026,102.608082 L248.97954,94.778307 C249.307988,91.0835623 247.998434,88.3728655 245.067829,86.6381007 C247.619129,84.205372 249.043111,81.506849 249.327059,78.5283288 L249.750863,73.8698259 C250.01786,70.9886961 249.197799,68.6208943 247.265253,66.7765654 C245.330588,64.9261496 242.870405,64.1409402 239.886825,64.4189084 L239.886825,64.4189084 Z M240.184318,93.9725942 L239.166455,103.990972 C239.022313,105.198379 238.419136,106.289317 237.370227,107.254078 C236.316884,108.214957 235.119398,108.754603 233.755596,108.876896 L230.6,109.152542 L232.500454,90.2766068 L235.93768,89.9776667 C237.219433,89.86702 238.259471,90.2144894 239.093276,91.0220161 C239.924863,91.8256604 240.281891,92.8117747 240.184318,93.9725942 L240.184318,93.9725942 Z M240.187854,71.6116015 L239.658935,78.5767447 C239.579064,79.6581442 239.170838,80.6465201 238.425381,81.5535003 C237.687024,82.4701705 236.8049,83.0651341 235.793209,83.3383909 L233.8,83.559322 L235.033553,67.7530595 L236.55109,67.5863922 C237.653301,67.4681747 238.542524,67.8092613 239.248933,68.603838 C239.953567,69.4061667 240.267724,70.4081085 240.187854,71.6116015 L240.187854,71.6116015 Z M272.30076,78.9208518 C270.215953,77.4930441 267.703139,76.9380149 264.752456,77.2413208 L263.379679,77.3836889 C260.385604,77.6890582 257.736696,78.7743571 255.444789,80.6499021 C252.841245,82.7338409 251.403379,85.2799603 251.143025,88.3130199 L249.839281,103.694965 C249.580899,106.713581 250.596675,109.020357 252.902389,110.604976 C254.981279,112.020404 257.519734,112.57956 260.511836,112.268 L261.82347,112.135949 C264.989142,111.81201 267.764283,110.584343 270.148892,108.452948 C272.537445,106.323616 273.8333,103.911612 274.060124,101.206618 L275.361895,85.8267364 C275.616333,82.8431961 274.596612,80.5446735 272.30076,78.9208518 L272.30076,78.9208518 Z M268.95897,85.1028926 L267.493895,100.457238 C267.340411,102.148853 266.814845,103.479892 265.933474,104.437994 C265.031174,105.402276 264.049807,105.902961 262.968442,105.948291 C261.901031,106.003923 261.001056,105.604199 260.282472,104.7553 C259.563888,103.914644 259.291802,102.715472 259.43831,101.153664 L260.903385,85.7993189 C261.059194,84.1963022 261.587086,82.8817461 262.512641,81.8494693 C263.377733,80.9614227 264.347473,80.4648584 265.419535,80.3741994 C266.542759,80.2835404 267.454361,80.6317535 268.154341,81.4332619 C268.833392,82.2285889 269.112454,83.4483651 268.95897,85.1028926 L268.95897,85.1028926 Z M297.903526,75.7194874 C295.814651,74.2958075 293.29577,73.7387154 290.344913,74.0420211 L288.972054,74.1864524 C285.979774,74.4856315 283.338599,75.5729928 281.036694,77.4444097 C278.431024,79.5324735 276.99899,82.086844 276.734675,85.111648 L275.438744,100.497707 C275.182319,103.518384 276.198156,105.827222 278.504006,107.407713 C280.583019,108.823139 283.121624,109.380232 286.113904,109.068673 L287.415753,108.940748 C290.581613,108.612682 293.35889,107.382953 295.751531,105.255687 C298.134309,103.124293 299.44602,100.710227 299.662995,98.0093623 L300.958926,82.629493 C301.225213,79.6438919 300.195569,77.3433078 297.903526,75.7194874 L297.903526,75.7194874 Z M294.559098,85.097741 L293.11619,100.454438 C292.9463,102.149979 292.427318,103.470565 291.535974,104.436796 C290.63532,105.400968 289.648558,105.909836 288.575686,105.94898 C287.49816,106.000485 286.606815,105.600807 285.887689,104.752006 C285.163908,103.917627 284.884635,102.712413 285.04289,101.154905 L286.504415,85.7982075 C286.658015,84.2056763 287.183978,82.885091 288.119541,81.8529331 C288.985285,80.9608684 289.962739,80.4684817 291.028629,80.3757729 C292.164337,80.2789437 293.06499,80.6332973 293.760844,81.4244124 C294.452043,82.2278886 294.708043,83.4557652 294.559098,85.097741 L294.559098,85.097741 Z M344.006899,98.6070643 C343.594548,98.2790118 343.446685,97.6188062 343.527905,96.6264474 L344.973216,79.2909234 C345.289768,75.7069499 344.196413,73.1235365 341.678574,71.5550355 C339.514773,70.1874667 336.609574,69.6851363 332.944233,70.0377927 L329.233075,70.3945498 L330.605496,54.7669492 L318.793101,55.8987303 L318.378668,60.4730122 L321.054783,60.2167212 L317,105.95339 L326.211252,105.063547 L328.82489,75.1697639 L332.540213,74.8150572 C335.012235,74.5710681 336.11392,76.1846763 335.834854,79.6374288 L334.316653,97.5142394 C334.139634,99.7408957 334.828968,101.409863 336.38049,102.523191 C337.759158,103.523751 339.571003,103.905112 341.811859,103.687777 L345.385567,103.347423 L345.8,98.7608389 C344.8795,98.8531037 344.283882,98.8059461 344.006899,98.6070643 L344.006899,98.6070643 Z" id="Fill-3"></path>
                        <path d="M66.9395364,27.0256069 L278.91894,6.0425092 L267.49452,47.5059047 L345.8,39.7487178 L345.8,34.8510753 L275.21267,41.8447515 L286.630937,0.381355932 L59.233693,22.8894061 L70.6560624,62.0974445 L0.2,69.0621528 L0.2,73.9618644 L78.3660079,66.229507 L66.9395364,27.0256069" id="Fill-4"></path>
                        <path d="M263.1155,51.3411798 L274.544023,9.97881356 L71.033458,30.242647 L82.4558274,69.3340485 L0.2,77.5249252 L0.2,83.559322 L345.8,49.138906 L345.8,43.1086722 L263.1155,51.3411798 L263.1155,51.3411798 Z M177.097207,52.9881216 L168.203963,47.288201 L159.300812,54.7669492 L162.703151,43.7749661 L153.8,38.0811028 L164.797661,36.9766548 L168.203963,25.9745763 L171.598376,36.2962179 L182.6,35.1958082 L173.696849,42.6806137 L177.097207,52.9881216 L177.097207,52.9881216 Z" id="Fill-5"></path>
                    </g>
                </g>
            </g>
        </g>
    </g>
</svg>